<?xml version="1.0" encoding="UTF-8" standalone="no"?>
<svg version="1.1" width="90%" height="90%" x="0" y="0" viewBox="0 0 5.4199233 2.343751" xml:space="preserve" class=""
  id="svg4" sodipodi:docname="key.svg" xmlns:inkscape="http://www.inkscape.org/namespaces/inkscape"
  xmlns:sodipodi="http://sodipodi.sourceforge.net/DTD/sodipodi-0.dtd" xmlns:xlink="http://www.w3.org/1999/xlink"
  xmlns="http://www.w3.org/2000/svg" xmlns:svg="http://www.w3.org/2000/svg">
  <sodipodi:namedview id="namedview1" pagecolor="#ffffff" bordercolor="#000000" borderopacity="0.25"
    inkscape:showpageshadow="2" inkscape:pageopacity="0.0" inkscape:pagecheckerboard="0" inkscape:deskcolor="#d1d1d1" />
  <defs id="defs4">
    <linearGradient id="linearGradient29">
      <stop style="stop-color:#e7e3f3;stop-opacity:1;" offset="0.1087963" id="stop29" />
      <stop style="stop-color:#7662bd;stop-opacity:1;" offset="1" id="stop30" />
    </linearGradient>
    <linearGradient id="linearGradient28">
      <stop offset="0" stop-color="#dfdaef" id="stop27" style="stop-color:#dfdaef;stop-opacity:1;" />
      <stop offset="1" stop-color="#fff" id="stop28" style="stop-color:#ffffff;stop-opacity:1;" />
    </linearGradient>
    <linearGradient id="linearGradient26">
      <stop offset="0.032" stop-color="#8b451c" id="stop25" style="stop-color:#43386b;stop-opacity:1;" />
      <stop offset="1" stop-color="#8b451c" stop-opacity="0" id="stop26" style="stop-color:#43386b;stop-opacity:0;" />
    </linearGradient>
    <linearGradient id="linearGradient24">
      <stop offset="0.032" stop-color="#8b451c" id="stop23" style="stop-color:#43386b;stop-opacity:1;" />
      <stop offset="1" stop-color="#8b451c" stop-opacity="0" id="stop24" style="stop-color:#43386b;stop-opacity:0;" />
    </linearGradient>
    <radialGradient xlink:href="#linearGradient29" id="radialGradient30" cx="186.03906" cy="282.11566" fx="186.03906"
      fy="282.11566" r="108.53906" gradientTransform="matrix(0.01709494,0,0,0.00449867,0.38412653,0.63515255)"
      gradientUnits="userSpaceOnUse" />
  </defs>
  <path
    d="m 2.152636,0.12635532 -0.2668977,8.8973e-4 v 0.2721117 h 0.2651302 z m 0.349088,0.3628156 q 0,0.0915932 -0.088377,0.0915932 l -0.3508554,-0.002668 0.00265,0.35125539 q 0,0.0924824 -0.088377,0.0924824 h -0.179403 q -0.088377,0 -0.088377,-0.0880362 V 0.04098695 q 0,-0.08892539 0.088377,-0.08892539 l 0.6195207,-8.8973e-4 q 0.086609,0 0.086609,0.0907039 z M 2.6581508,1.0182771 q -0.043305,0 -0.043305,-0.0444627 0,-0.0151174 0.0053,-0.0248991 l -8.843e-4,-8.8973e-4 0.1811722,-0.7620905 0.030048,-0.1271634 0.00884,-0.03645932 q 0.016792,-0.0693618 0.078655,-0.0693618 0.00707,0 0.015024,8.8973e-4 v -8.8973e-4 h 0.2898756 v 8.8973e-4 q 0.00795,-8.8973e-4 0.015024,-8.8973e-4 0.061864,0 0.078655,0.0693618 l 0.00884,0.03645932 0.2174067,0.88836474 q 0.00265,0.0106711 0.00265,0.0293453 0,0.0444627 -0.044188,0.0444627 H 3.269717 q -0.00795,8.897e-4 -0.015024,8.897e-4 -0.061864,0 -0.078655,-0.0693618 L 2.9895629,0.18593543 H 2.9886786 L 2.8101577,0.95069379 Q 2.793366,1.0200556 2.7315023,1.0200556 Z M 3.0823591,0.9329087 q -0.00707,0.0880361 -0.088377,0.0889254 -0.088377,0 -0.088377,-0.0871469 L 2.9047214,0.75416858 q 0,-0.0889254 0.088377,-0.0889254 0.081307,8.8973e-4 0.088377,0.0898147 z M 4.3602865,0.3086525 q 0.088377,0 0.088377,0.0871469 v 0.54066638 q 0,0.0889254 -0.088377,0.0889254 H 3.8353287 q -0.091912,-8.897e-4 -0.090144,-0.0889254 8.842e-4,-0.0889254 0.088377,-0.0889254 h 0.438348 V 0.66435403 l -0.5320278,8.8973e-4 q -0.083958,0 -0.086609,-0.0871469 l -8.844e-4,-0.5379985 q 0,-0.08892539 0.088377,-0.08892539 l 0.6133344,8.8973e-4 q 0.085726,0.007114 0.089261,0.08892539 -8.842e-4,0.08892539 -0.089261,0.08892539 l -0.5205388,8.8973e-4 0.00265,0.17873994 z m 0.97126,0 q 0.088377,0 0.088377,0.0871469 v 0.54066638 q 0,0.0889254 -0.088377,0.0889254 H 4.8065888 q -0.091912,-8.897e-4 -0.090144,-0.0889254 8.843e-4,-0.0889254 0.088377,-0.0889254 h 0.438348 V 0.66435403 l -0.5320279,8.8973e-4 q -0.083958,0 -0.086609,-0.0871469 l -8.844e-4,-0.5379985 q 0,-0.08892539 0.088377,-0.08892539 L 5.32536,-0.0479373 q 0.085725,0.007114 0.08926,0.08892539 -8.842e-4,0.08892539 -0.08926,0.08892539 l -0.520539,8.8973e-4 0.00265,0.17873994 z"
    id="text7"
    style="font-weight:bold;font-size:96px;font-family:'HeavyData Nerd Font';-inkscape-font-specification:'HeavyData Nerd Font Bold';white-space:pre;fill:#e7e3f3;stroke-width:0.0189121"
    aria-label="Pass" />
  <path
    d="m 2.3612632,1.9119708 -0.064106,0.2681709 -0.027245,0.1155075 -0.00801,0.033117 q -0.01202,0.049273 -0.048881,0.059773 v 0.00323 h -0.21155 v -8.081e-4 q -0.00721,8.081e-4 -0.013622,8.081e-4 -0.056093,0 -0.071318,-0.063004 l -0.00801,-0.033117 -0.197126,-0.8069363 q -0.0024,-0.00969 -0.0024,-0.026655 0,-0.040387 0.040066,-0.040387 h 0.2099473 q 0.00721,-8.082e-4 0.013623,-8.082e-4 0.056093,0 0.071318,0.063004 l 0.1250067,0.514533 0.1049737,-0.4523366 0.014424,-0.060581 q 0.014424,-0.058965 0.064907,-0.063004 h 0.015225 q 0.050483,0.00404 0.064907,0.063004 l 0.014424,0.060581 0.1025697,0.4418358 0.1169935,-0.5024167 q 0.015225,-0.063004 0.071318,-0.063004 l 0.06651,0.00161 q 0.039265,0 0.039265,0.040387 0,0.013732 -0.00481,0.022617 l 8.018e-4,8.081e-4 -0.1642718,0.6922365 -0.027245,0.1155074 -0.00801,0.033117 q -0.011219,0.046849 -0.044874,0.058965 v 0.00404 h -0.091351 v -0.00404 q -0.033656,-0.012116 -0.044874,-0.058965 l -0.00801,-0.033117 -0.027245,-0.1155074 z m 0.8582193,-0.3303672 -0.121,8.082e-4 0.0016,0.6470029 h 0.125808 l 0.160265,-0.3190589 z m 0.059298,0.810167 h -0.261232 q -0.080133,0 -0.080133,-0.079967 V 1.5008292 q 0,-0.080774 0.080133,-0.080774 L 3.336476,1.4192466 v 0.00161 h 0.072921 q 0.038464,0 0.063305,0.046849 l 0.1851062,0.357024 q 0.020834,0.041195 0.020834,0.081582 0,0.042003 -0.021636,0.083198 L 3.4775093,2.3473448 q -0.024841,0.045234 -0.064106,0.045234 H 3.2891979 q -0.00481,0 -0.010417,-8.082e-4 z m 1.2588821,-0.08239 q 0,0.083198 -0.080133,0.083198 -0.077729,-8.082e-4 -0.076927,-0.084005 L 4.3814047,2.147832 4.1386032,2.1470238 3.8982056,2.1486384 q -0.080132,0 -0.080132,-0.079967 V 1.5064819 q 0,-0.08239 0.07853,-0.08239 h 0.162669 q 0.075324,0 0.075324,0.079159 V 1.9887051 H 4.3781994 V 1.6615688 q 0,-0.079967 0.080133,-0.079967 0.080132,0 0.080132,0.080774 z M 4.8646035,1.5816036 V 2.0678654 H 5.2596568 V 1.5824112 Z M 5.3397893,1.4168238 q 0.080133,0 0.080133,0.080774 v 0.8150135 q 0,0.079159 -0.080133,0.079159 H 4.7772589 q -0.079331,0 -0.07853,-0.079159 L 4.6979273,1.4967904 q 0,-0.080774 0.080133,-0.080774 z m -0.1963246,0.488685 q -0.00641,0.079967 -0.080133,0.081582 -0.080133,0 -0.080133,-0.079967 L 4.9823979,1.7431524 q 0,-0.080774 0.080133,-0.080774 0.073722,8.081e-4 0.080133,0.081582 z"
    id="text8"
    style="font-weight:bold;font-size:96px;font-family:'HeavyData Nerd Font';-inkscape-font-specification:'HeavyData Nerd Font Bold';white-space:pre;fill:url(#radialGradient30);stroke-width:0.0171633"
    aria-label="wd40" />
  <g id="g51" transform="matrix(0.00452501,0,0,0.00476837,-0.05977086,-0.04882646)">
    <linearGradient id="f" x1="71.75" x2="121.854" y1="343.57901" y2="343.57901" gradientUnits="userSpaceOnUse">
      <stop offset="0" stop-color="#ffa538" id="stop1-8" style="stop-color:#43386b;stop-opacity:1;" />
      <stop offset="1" stop-color="#f7e041" id="stop2-8" style="stop-color:#7662bd;stop-opacity:1;" />
    </linearGradient>
    <linearGradient id="g" x1="66.237" x2="249.98599" y1="163.953" y2="270.04099" gradientUnits="userSpaceOnUse">
      <stop offset="0" stop-color="#ffa538" id="stop3" style="stop-color:#7662bd;stop-opacity:1;" />
      <stop offset="1" stop-color="#fcf3b3" id="stop4" style="stop-color:#e7e3f3;stop-opacity:1;" />
    </linearGradient>
    <linearGradient id="a-3">
      <stop offset="0.032" stop-color="#8b451c" id="stop5" style="stop-color:#43386b;stop-opacity:1;" />
      <stop offset="1" stop-color="#8b451c" stop-opacity="0" id="stop6" style="stop-color:#43386b;stop-opacity:0;" />
    </linearGradient>
    <linearGradient xlink:href="#a-3" id="h" x1="84.912003" x2="-6.618" y1="268.38" y2="268.38"
      gradientUnits="userSpaceOnUse" />
    <linearGradient xlink:href="#linearGradient24" id="i" x1="267.509" x2="150.342" y1="169.213" y2="169.213"
      gradientUnits="userSpaceOnUse" />
    <linearGradient id="b">
      <stop offset="0" stop-color="#dfdaef" id="stop7" />
      <stop offset="1" stop-color="#fff" id="stop8" />
    </linearGradient>
    <linearGradient xlink:href="#b" id="j" x1="164.517" x2="164.517" y1="246.506" y2="-9.335"
      gradientUnits="userSpaceOnUse" />
    <linearGradient id="c">
      <stop offset=".032" stop-color="#7662bd" id="stop9" />
      <stop offset="1" stop-color="#7662bd" stop-opacity="0" id="stop10" />
    </linearGradient>
    <linearGradient xlink:href="#c" id="k" x1="225.399" x2="225.399" y1="-5.5339999" y2="135.241"
      gradientUnits="userSpaceOnUse" />
    <linearGradient xlink:href="#linearGradient26" id="l" x1="242.43401" x2="242.43401" y1="446.88901" y2="198.532"
      gradientUnits="userSpaceOnUse" />
    <linearGradient id="m" x1="260.974" x2="328.59201" y1="383.77701" y2="266.659" gradientUnits="userSpaceOnUse">
      <stop offset=".032" stop-color="#a996eb" id="stop11" />
      <stop offset=".221" stop-color="#bfb3eb" id="stop12" />
      <stop offset=".411" stop-color="#d1c9eb" id="stop13" />
      <stop offset=".532" stop-color="#d7d1eb" id="stop14" />
      <stop offset="1" stop-color="#e9e5f6" id="stop15" />
    </linearGradient>
    <linearGradient xlink:href="#linearGradient28" id="n" x1="471.68201" x2="471.68201" y1="376.164" y2="232.90401"
      gradientTransform="matrix(0.866,-0.5,0,1.155,-51.632,164.427)" gradientUnits="userSpaceOnUse" />
    <linearGradient xlink:href="#c" id="o" x1="261.366" x2="261.366" y1="325.371" y2="424.34299"
      gradientUnits="userSpaceOnUse" />
    <linearGradient id="d">
      <stop offset="0" stop-color="#43386b" id="stop16" />
      <stop offset="1" stop-color="#7662bd" id="stop17" />
    </linearGradient>
    <linearGradient xlink:href="#d" id="p" x1="263.94501" x2="263.94501" y1="389.38" y2="296.67001"
      gradientUnits="userSpaceOnUse" />
    <linearGradient xlink:href="#d" id="q" x1="278.41101" x2="282.492" y1="324.26099" y2="317.19101"
      gradientUnits="userSpaceOnUse" />
    <linearGradient id="e">
      <stop offset="0" stop-color="#43386b" id="stop18" />
      <stop offset=".654" stop-color="#7662bd" id="stop19" />
      <stop offset=".731" stop-color="#6e5cb0" id="stop20" />
      <stop offset=".871" stop-color="#5a4b8f" id="stop21" />
      <stop offset="1" stop-color="#43386b" id="stop22" />
    </linearGradient>
    <linearGradient xlink:href="#e" id="r" x1="243.10899" x2="251.911" y1="375.302" y2="360.056"
      gradientUnits="userSpaceOnUse" />
    <linearGradient xlink:href="#d" id="s" x1="246.588" x2="252.015" y1="346.25" y2="336.84799"
      gradientUnits="userSpaceOnUse" />
    <linearGradient xlink:href="#d" id="t" x1="260.978" x2="266.39001" y1="325.69699" y2="316.323"
      gradientUnits="userSpaceOnUse" />
    <linearGradient xlink:href="#d" id="u" x1="245.94701" x2="245.94701" y1="241.71899" y2="176.924"
      gradientTransform="matrix(0.866,-0.5,0,1.155,56.011,243.561)" gradientUnits="userSpaceOnUse" />
    <linearGradient xlink:href="#c" id="v" x1="323.15601" x2="323.15601" y1="289.62399" y2="388.59601"
      gradientUnits="userSpaceOnUse" />
    <linearGradient xlink:href="#d" id="w" x1="325.73499" x2="325.73499" y1="353.63199" y2="260.923"
      gradientUnits="userSpaceOnUse" />
    <linearGradient xlink:href="#d" id="x" x1="340.20099" x2="344.28201" y1="288.513" y2="281.444"
      gradientUnits="userSpaceOnUse" />
    <linearGradient xlink:href="#e" id="y" x1="304.89899" x2="313.70099" y1="339.55499" y2="324.30899"
      gradientUnits="userSpaceOnUse" />
    <linearGradient xlink:href="#d" id="z" x1="308.37799" x2="313.80499" y1="310.50299" y2="301.10199"
      gradientUnits="userSpaceOnUse" />
    <linearGradient xlink:href="#d" id="A" x1="322.76801" x2="328.17999" y1="289.95001" y2="280.57599"
      gradientUnits="userSpaceOnUse" />
    <linearGradient xlink:href="#d" id="B" x1="317.298" x2="317.298" y1="241.657" y2="176.862"
      gradientTransform="matrix(0.866,-0.5,0,1.155,56.011,243.561)" gradientUnits="userSpaceOnUse" />
    <linearGradient xlink:href="#c" id="C" x1="384.94601" x2="384.94601" y1="253.59599" y2="352.56799"
      gradientUnits="userSpaceOnUse" />
    <linearGradient xlink:href="#d" id="D" x1="387.526" x2="387.526" y1="317.60501" y2="224.895"
      gradientUnits="userSpaceOnUse" />
    <linearGradient xlink:href="#d" id="E" x1="401.991" x2="406.07199" y1="252.48599" y2="245.41701"
      gradientUnits="userSpaceOnUse" />
    <linearGradient xlink:href="#e" id="F" x1="366.689" x2="375.491" y1="303.52701" y2="288.28101"
      gradientUnits="userSpaceOnUse" />
    <linearGradient xlink:href="#d" id="G" x1="370.168" x2="375.59601" y1="274.47501" y2="265.07401"
      gradientUnits="userSpaceOnUse" />
    <linearGradient xlink:href="#d" id="H" x1="384.55801" x2="389.97" y1="253.923" y2="244.548"
      gradientUnits="userSpaceOnUse" />
    <linearGradient xlink:href="#d" id="I" x1="388.64899" x2="388.64899" y1="241.35201" y2="176.558"
      gradientTransform="matrix(0.866,-0.5,0,1.155,56.011,243.561)" gradientUnits="userSpaceOnUse" />
    <path fill="url(#f)"
      d="M 315.825,175.157 13.209,266.069 v 203.62 l 0.021,-0.006 c 0.016,4.189 3.096,8.575 8.977,11.97 l 21.782,12.576 21.782,12.576 c 9.701,5.601 24.076,6.835 33.877,2.909 l 24.142,-9.674 c 67.014,-26.852 124.81,-60.22 171.319,-98.911 l 16.755,-13.938 c 2.666,-2.217 3.939,-4.842 3.941,-7.549 l 0.019,-0.006 V 175.157 Z"
      opacity="1" data-original="url(#f)" class="" id="path22" style="display:inline;fill:url(#f)" />
    <path fill="url(#g)"
      d="m 205.243,145.298 24.142,-9.674 c 9.8,-3.927 24.175,-2.693 33.876,2.908 l 21.782,12.576 21.782,12.576 c 9.702,5.601 11.839,13.9 5.038,19.559 l -16.755,13.938 c -46.509,38.69 -104.305,72.059 -171.318,98.911 l -24.142,9.674 c -9.8,3.927 -24.175,2.693 -33.877,-2.909 L 43.99,290.282 22.208,277.706 C 12.507,272.105 10.369,263.805 17.17,258.147 L 33.925,244.209 C 80.434,205.518 138.23,172.15 205.243,145.298 Z"
      opacity="1" data-original="url(#g)" class="" id="path23" style="display:inline;fill:url(#g)" />
    <path fill="url(#h)"
      d="m 17.17,258.147 c -6.802,5.658 -4.664,13.957 5.038,19.559 l 10.185,5.88 h 48.465 v -30.412 h -57.71 z"
      opacity="1" data-original="url(#h)" class="" id="path24" style="display:inline;fill:url(#h)" />
    <path fill="url(#i)"
      d="m 122.336,184.419 h 129.163 v -30.412 h -67.081 c -21.77,9.44 -42.502,19.584 -62.082,30.412 z" opacity="1"
      data-original="url(#i)" class="" id="path25" style="display:inline;fill:url(#i)" />
    <path fill="url(#j)"
      d="m 273.51,80.584 c 0,-29.086 -15.038,-55.134 -40.229,-69.677 -25.189,-14.543 -55.265,-14.543 -80.454,0 -60.019,34.651 -97.303,99.229 -97.303,168.532 v 88.998 l 0.044,0.003 c 0.027,3.676 2.704,7.544 7.945,10.57 9.631,5.561 24.2,6.165 32.541,1.349 3.819,-2.205 5.647,-5.165 5.607,-8.258 l 0.045,0.003 v -92.665 c 0,-52.857 28.436,-102.109 74.211,-128.538 10.733,-6.195 23.542,-6.196 34.275,0 10.729,6.195 17.136,17.292 17.136,29.683 v 88.825 l 0.051,0.004 c 0.105,3.626 2.775,7.425 7.938,10.405 9.631,5.561 24.201,6.164 32.542,1.349 3.616,-2.088 5.462,-4.852 5.614,-7.766 l 0.038,0.003 v -92.82 z"
      opacity="1" data-original="url(#j)" class="" id="path26" style="display:inline;fill:url(#j)" />
    <path fill="url(#k)"
      d="M 245.664,169.521 V 88.755 c 0,-34.675 -37.537,-56.347 -67.566,-39.01 v 0.001 c 9.967,-4.866 21.411,-4.644 31.24,0.677 11.296,6.115 17.99,18.28 17.99,31.125 v 87.861 l 0.051,0.004 c 0.105,3.626 2.775,7.425 7.938,10.405 9.631,5.561 24.201,6.164 32.542,1.349 2.377,-1.373 3.974,-3.04 4.843,-4.847 -17.853,2.312 -27.038,-6.799 -27.038,-6.799 z"
      opacity="1" data-original="url(#k)" class="" id="path27" style="display:inline;fill:url(#k)" />
    <path fill="url(#l)"
      d="m 315.825,205.26 -104.471,60.317 c -23.367,13.491 -42.311,49.685 -42.311,80.843 0,31.157 18.943,45.478 42.311,31.986 l 104.471,-60.317 z"
      opacity="1" data-original="url(#l)" class="" id="path28" style="display:inline;fill:url(#l)" />
    <path fill="url(#m)"
      d="m 484.205,175.18 -27.073,-15.609 c -7.395,-4.168 -16.991,-3.736 -27.488,2.325 L 230.373,276.945 c -23.368,13.491 -42.311,49.686 -42.311,80.843 0,16.852 5.549,28.765 14.335,34.029 l 27.803,16.056 z"
      opacity="1" data-original="url(#m)" class="" id="path29" style="display:inline;opacity:0.75;fill:url(#m)" />
    <path fill="url(#n)"
      d="M 456.48,177.389 257.209,292.438 c -23.368,13.491 -42.311,49.686 -42.311,80.843 0,31.157 18.943,45.478 42.311,31.986 L 456.48,290.218 c 23.368,-13.491 42.311,-49.686 42.311,-80.843 0,-31.157 -18.943,-45.478 -42.311,-31.986 z"
      opacity="1" data-original="url(#n)" class="" id="path30" style="display:inline;opacity:0.5;fill:url(#n)" />
    <path fill="url(#o)"
      d="m 280.903,339.962 c 2.853,-4.277 4.003,-9.758 2.861,-13.379 0.699,-3.096 0.581,-6.081 -0.571,-8.076 -2.108,-3.651 -6.776,-2.624 -10.427,2.295 l -3.765,5.072 v -5.797 c 0,-5.621 -3.417,-8.204 -7.633,-5.77 -4.216,2.434 -7.633,8.964 -7.633,14.585 v 5.796 l -3.765,-0.724 c -3.651,-0.703 -8.319,3.66 -10.427,9.745 -0.701,2.024 -1.023,3.977 -1.016,5.716 l -0.007,-0.006 v 7.146 l 0.014,-0.013 c 0.107,3.038 1.272,5.334 3.299,6.018 -2.18,3.268 -3.35,7.219 -3.274,10.534 l -0.036,-0.033 v 6.735 l 0.035,-0.044 c 0.03,1.63 0.325,3.119 0.986,4.265 2.108,3.651 6.776,2.623 10.427,-2.295 l 3.765,-5.072 v 5.796 c 0,5.621 3.418,8.204 7.633,5.77 4.216,-2.434 7.633,-8.963 7.633,-14.584 v -5.797 l 3.765,0.725 c 3.651,0.703 8.319,-3.66 10.427,-9.745 1.156,-3.336 1.296,-6.492 0.59,-8.783 1.127,-4.936 -0.02,-9.114 -2.881,-10.08 z"
      opacity="1" data-original="url(#o)" id="path31" style="display:inline;fill:url(#o)" />
    <path fill="url(#p)"
      d="m 289.228,343.018 -4.09,-2.344 3.821,-21.217 -6.992,-4.021 v 0.003 c -1.924,-1.315 -4.682,-0.655 -7.246,1.757 -0.62,0.583 -1.042,-0.698 -1.042,-0.698 l -7.272,-4.198 0.001,0.003 c -1.326,-0.715 -3.032,-0.623 -4.897,0.453 -4.216,2.434 -7.633,8.964 -7.633,14.584 v 5.797 l -3.765,-0.725 c -3.651,-0.703 -8.319,3.661 -10.427,9.745 -1.861,5.373 -1.1,10.286 1.616,11.847 l -0.005,10e-4 4.076,2.342 -2.892,3.896 c -3.651,4.918 -4.902,11.865 -2.794,15.516 0.488,0.846 1.118,1.43 1.837,1.783 l 7.317,4.224 c 0,0 6.063,-2.35 7.677,-1.416 l -0.01,0.006 7.461,4.288 z"
      opacity="1" data-original="url(#p)" id="path32" style="display:inline;fill:url(#p)" />
    <path fill="url(#q)"
      d="m 281.967,315.439 c -1.924,-1.315 -4.682,-0.655 -7.246,1.757 -0.62,0.583 1.913,11.431 1.913,11.431 l 12.325,-9.17 -6.992,-4.021 z"
      opacity="1" data-original="url(#q)" id="path33" style="display:inline;fill:url(#q)" />
    <path fill="url(#r)"
      d="m 245.373,356.346 -2.892,3.896 c -3.651,4.918 -4.902,11.865 -2.794,15.516 0.488,0.846 1.118,1.43 1.837,1.783 l 7.317,4.224 4.894,-22.29 z"
      opacity="1" data-original="url(#r)" id="path34" style="display:inline;fill:url(#r)" />
    <path fill="url(#s)"
      d="m 239.687,342.157 c -1.861,5.373 -1.1,10.286 1.616,11.847 l -0.005,10e-4 4.076,2.342 3.324,1.919 12.671,-20.825 -7.489,-4.305 -3.765,-0.725 c -3.652,-0.702 -8.321,3.661 -10.428,9.746 z"
      opacity="1" data-original="url(#s)" id="path35" style="display:inline;fill:url(#s)" />
    <path fill="url(#t)"
      d="m 273.679,316.498 -7.272,-4.198 0.001,0.003 c -1.326,-0.715 -3.032,-0.623 -4.897,0.453 -4.216,2.434 -7.633,8.964 -7.633,14.584 v 5.797 l 7.489,4.305 13.353,-20.244 c -0.619,0.581 -1.041,-0.7 -1.041,-0.7 z"
      opacity="1" data-original="url(#t)" id="path36" style="fill:url(#t)" />
    <path fill="url(#u)"
      d="m 288.032,342.572 -3.765,-0.724 3.765,-5.072 c 3.651,-4.918 4.902,-11.865 2.794,-15.516 -2.108,-3.651 -6.776,-2.624 -10.427,2.295 l -3.765,5.072 v -5.797 c 0,-5.621 -3.417,-8.204 -7.633,-5.77 -4.216,2.434 -7.633,8.964 -7.633,14.584 v 5.796 l -3.765,-0.724 c -3.651,-0.703 -8.319,3.66 -10.427,9.745 -2.108,6.085 -0.857,11.587 2.794,12.289 l 3.765,0.725 -3.765,5.072 c -3.651,4.918 -4.902,11.865 -2.794,15.516 2.108,3.651 6.776,2.623 10.427,-2.295 l 3.765,-5.072 v 5.796 c 0,5.621 3.417,8.204 7.633,5.77 4.216,-2.434 7.633,-8.964 7.633,-14.584 v -5.797 l 3.765,0.725 c 3.651,0.703 8.319,-3.66 10.427,-9.745 2.108,-6.084 0.857,-11.586 -2.794,-12.289 z"
      opacity="1" data-original="url(#u)" class="" id="path37" style="fill:url(#u)" />
    <path fill="url(#v)"
      d="m 342.693,304.215 c 2.853,-4.277 4.003,-9.758 2.861,-13.379 0.699,-3.096 0.581,-6.081 -0.571,-8.076 -2.108,-3.651 -6.776,-2.624 -10.427,2.295 l -3.765,5.072 v -5.797 c 0,-5.621 -3.417,-8.204 -7.633,-5.77 -4.216,2.434 -7.633,8.964 -7.633,14.584 v 5.797 l -3.765,-0.725 c -3.651,-0.703 -8.319,3.66 -10.427,9.745 -0.701,2.023 -1.023,3.977 -1.016,5.716 l -0.007,-0.006 v 7.146 l 0.014,-0.013 c 0.107,3.038 1.272,5.334 3.299,6.018 -2.18,3.269 -3.349,7.219 -3.274,10.534 l -0.036,-0.033 v 6.735 l 0.035,-0.044 c 0.03,1.63 0.324,3.119 0.986,4.264 2.108,3.651 6.776,2.623 10.427,-2.295 l 3.765,-5.072 v 5.797 c 0,5.621 3.417,8.204 7.633,5.77 4.216,-2.434 7.633,-8.963 7.633,-14.584 v -5.797 l 3.765,0.725 c 3.651,0.703 8.319,-3.66 10.427,-9.745 1.156,-3.336 1.296,-6.492 0.59,-8.783 1.127,-4.935 -0.02,-9.113 -2.881,-10.079 z"
      opacity="1" data-original="url(#v)" id="path38" style="fill:url(#v)" />
    <path fill="url(#w)"
      d="m 351.018,307.271 -4.09,-2.344 3.82,-21.217 -6.992,-4.021 v 0.003 c -1.924,-1.315 -4.682,-0.655 -7.246,1.757 -0.62,0.583 -1.042,-0.698 -1.042,-0.698 l -7.271,-4.199 10e-4,0.003 c -1.326,-0.715 -3.032,-0.623 -4.897,0.453 -4.216,2.434 -7.633,8.964 -7.633,14.584 v 5.797 l -3.765,-0.725 c -3.651,-0.703 -8.319,3.661 -10.427,9.745 -1.861,5.373 -1.1,10.286 1.616,11.847 l -0.005,0.001 4.076,2.342 -2.892,3.896 c -3.651,4.918 -4.902,11.865 -2.794,15.516 0.488,0.846 1.118,1.43 1.837,1.783 l 7.317,4.224 c 0,0 6.063,-2.35 7.677,-1.416 l -0.01,0.006 7.461,4.288 z"
      opacity="1" data-original="url(#w)" id="path39" style="fill:url(#w)" />
    <path fill="url(#x)"
      d="m 343.757,279.692 c -1.924,-1.315 -4.682,-0.655 -7.246,1.757 -0.62,0.583 1.913,11.431 1.913,11.431 l 12.325,-9.17 -6.992,-4.021 z"
      opacity="1" data-original="url(#x)" id="path40" style="fill:url(#x)" />
    <path fill="url(#y)"
      d="m 307.163,320.599 -2.892,3.896 c -3.651,4.918 -4.902,11.865 -2.794,15.516 0.488,0.846 1.118,1.43 1.837,1.783 l 7.317,4.224 4.894,-22.29 z"
      opacity="1" data-original="url(#y)" id="path41" style="fill:url(#y)" />
    <path fill="url(#z)"
      d="m 301.477,306.409 c -1.861,5.373 -1.1,10.286 1.616,11.847 l -0.005,0.001 4.076,2.342 3.324,1.919 12.671,-20.825 -7.489,-4.305 -3.765,-0.725 c -3.652,-0.701 -8.32,3.662 -10.428,9.746 z"
      opacity="1" data-original="url(#z)" id="path42" style="fill:url(#z)" />
    <path fill="url(#A)"
      d="m 335.469,280.751 -7.271,-4.199 0.001,0.003 c -1.326,-0.715 -3.032,-0.623 -4.897,0.453 -4.216,2.434 -7.633,8.964 -7.633,14.584 v 5.797 l 7.489,4.305 13.353,-20.245 c -0.62,0.583 -1.042,-0.698 -1.042,-0.698 z"
      opacity="1" data-original="url(#A)" id="path43" style="fill:url(#A)" />
    <path fill="url(#B)"
      d="m 349.822,306.825 -3.765,-0.724 3.765,-5.072 c 3.651,-4.918 4.902,-11.865 2.794,-15.516 -2.108,-3.651 -6.776,-2.623 -10.427,2.295 l -3.765,5.072 v -5.797 c 0,-5.621 -3.417,-8.204 -7.633,-5.77 -4.216,2.434 -7.633,8.964 -7.633,14.584 v 5.796 l -3.765,-0.724 c -3.651,-0.703 -8.319,3.661 -10.427,9.745 -2.108,6.085 -0.857,11.587 2.794,12.289 l 3.765,0.725 -3.765,5.072 c -3.651,4.918 -4.902,11.865 -2.794,15.516 2.108,3.651 6.776,2.623 10.427,-2.295 l 3.765,-5.072 v 5.796 c 0,5.621 3.417,8.204 7.633,5.77 4.216,-2.434 7.633,-8.964 7.633,-14.584 v -5.796 l 3.765,0.725 c 3.651,0.703 8.319,-3.66 10.427,-9.745 2.108,-6.085 0.857,-11.587 -2.794,-12.29 z"
      opacity="1" data-original="url(#B)" id="path44" style="fill:url(#B)" />
    <path fill="url(#C)"
      d="m 404.483,268.188 c 2.853,-4.277 4.003,-9.758 2.861,-13.379 0.699,-3.096 0.581,-6.081 -0.571,-8.076 -2.108,-3.651 -6.776,-2.624 -10.427,2.295 l -3.765,5.072 v -5.797 c 0,-5.621 -3.417,-8.204 -7.633,-5.77 -4.216,2.434 -7.633,8.964 -7.633,14.584 v 5.796 l -3.765,-0.724 c -3.651,-0.703 -8.319,3.66 -10.427,9.745 -0.701,2.023 -1.023,3.977 -1.016,5.716 l -0.007,-0.006 v 7.146 l 0.014,-0.014 c 0.107,3.038 1.272,5.334 3.299,6.018 -2.18,3.268 -3.349,7.219 -3.274,10.534 l -0.036,-0.033 v 6.735 l 0.035,-0.044 c 0.03,1.63 0.324,3.119 0.986,4.265 2.108,3.651 6.776,2.623 10.427,-2.295 l 3.765,-5.072 v 5.797 c 0,5.621 3.417,8.204 7.633,5.77 4.216,-2.434 7.633,-8.963 7.633,-14.584 v -5.796 l 3.765,0.724 c 3.651,0.703 8.319,-3.66 10.427,-9.745 1.156,-3.336 1.296,-6.492 0.59,-8.783 1.127,-4.935 -0.02,-9.113 -2.881,-10.079 z"
      opacity="1" data-original="url(#C)" id="path45" style="fill:url(#C)" />
    <path fill="url(#D)"
      d="m 412.808,271.244 -4.09,-2.344 3.82,-21.217 -6.992,-4.021 v 0.003 c -1.924,-1.315 -4.682,-0.655 -7.246,1.757 -0.62,0.583 -1.042,-0.698 -1.042,-0.698 l -7.272,-4.198 0.001,0.003 c -1.326,-0.715 -3.032,-0.624 -4.897,0.453 -4.216,2.434 -7.633,8.964 -7.633,14.585 v 5.796 l -3.765,-0.725 c -3.651,-0.703 -8.319,3.661 -10.427,9.745 -1.861,5.373 -1.1,10.286 1.616,11.847 l -0.005,10e-4 4.076,2.342 -2.892,3.896 c -3.651,4.918 -4.902,11.865 -2.794,15.516 0.488,0.846 1.118,1.43 1.837,1.783 l 7.317,4.224 c 0,0 6.063,-2.35 7.677,-1.416 l -0.01,0.006 7.461,4.288 z"
      opacity="1" data-original="url(#D)" id="path46" style="fill:url(#D)" />
    <path fill="url(#E)"
      d="m 405.547,243.664 c -1.924,-1.315 -4.682,-0.655 -7.246,1.757 -0.62,0.583 1.913,11.431 1.913,11.431 l 12.325,-9.17 -6.992,-4.021 z"
      opacity="1" data-original="url(#E)" id="path47" style="fill:url(#E)" />
    <path fill="url(#F)"
      d="m 368.953,284.572 -2.892,3.896 c -3.651,4.918 -4.902,11.865 -2.794,15.516 0.488,0.846 1.118,1.43 1.837,1.783 l 7.317,4.224 4.894,-22.29 z"
      opacity="1" data-original="url(#F)" id="path48" style="fill:url(#F)" />
    <path fill="url(#G)"
      d="m 363.267,270.382 c -1.861,5.373 -1.1,10.286 1.616,11.847 l -0.005,0.001 4.076,2.342 3.324,1.919 12.671,-20.825 -7.489,-4.305 -3.765,-0.725 c -3.652,-0.702 -8.32,3.662 -10.428,9.746 z"
      opacity="1" data-original="url(#G)" id="path49" style="fill:url(#G)" />
    <path fill="url(#H)"
      d="m 397.259,244.723 -7.272,-4.198 10e-4,0.003 c -1.326,-0.715 -3.032,-0.624 -4.897,0.453 -4.216,2.434 -7.633,8.964 -7.633,14.585 v 5.796 l 7.489,4.305 13.353,-20.244 c -0.619,0.582 -1.041,-0.7 -1.041,-0.7 z"
      opacity="1" data-original="url(#H)" id="path50" style="fill:url(#H)" />
    <path fill="url(#I)"
      d="m 411.612,270.798 -3.765,-0.725 3.765,-5.072 c 3.651,-4.918 4.902,-11.865 2.794,-15.516 -2.108,-3.651 -6.776,-2.623 -10.427,2.295 l -3.765,5.072 v -5.797 c 0,-5.621 -3.417,-8.204 -7.633,-5.77 -4.216,2.434 -7.633,8.964 -7.633,14.584 v 5.796 l -3.765,-0.725 c -3.651,-0.703 -8.319,3.661 -10.427,9.745 -2.108,6.085 -0.857,11.587 2.794,12.29 l 3.765,0.725 -3.765,5.072 c -3.651,4.918 -4.902,11.865 -2.794,15.516 2.108,3.651 6.776,2.623 10.427,-2.295 l 3.765,-5.072 v 5.797 c 0,5.621 3.418,8.204 7.633,5.77 4.216,-2.434 7.633,-8.964 7.633,-14.584 v -5.796 l 3.765,0.725 c 3.651,0.703 8.319,-3.66 10.427,-9.745 2.108,-6.085 0.857,-11.588 -2.794,-12.29 z"
      opacity="1" data-original="url(#I)" id="path51" style="fill:url(#I)" />
  </g>
</svg>